<svg width="24" height="24" viewBox="0 0 24 24" fill="none" xmlns="http://www.w3.org/2000/svg">
<path d="M12 24C18.6274 24 24 18.6274 24 12C24 5.37258 18.6274 0 12 0C5.37258 0 0 5.37258 0 12C0 18.6274 5.37258 24 12 24Z" fill="url(#paint0_linear_7922_37500)"/>
<path fill-rule="evenodd" clip-rule="evenodd" d="M5.43201 11.8734C8.93026 10.3493 11.263 9.34452 12.4301 8.85905C15.7627 7.47294 16.4551 7.23216 16.9065 7.22421C17.0058 7.22246 17.2277 7.24706 17.3715 7.36372C17.4929 7.46223 17.5263 7.5953 17.5423 7.6887C17.5583 7.78209 17.5782 7.99485 17.5623 8.1611C17.3817 10.0586 16.6003 14.6633 16.2028 16.7885C16.0346 17.6877 15.7034 17.9893 15.3827 18.0188C14.6858 18.0829 14.1567 17.5582 13.4817 17.1158C12.4256 16.4235 11.8289 15.9925 10.8037 15.3169C9.61896 14.5362 10.387 14.1071 11.0622 13.4058C11.2389 13.2222 14.3093 10.4295 14.3687 10.1761C14.3762 10.1444 14.3831 10.0263 14.3129 9.96397C14.2427 9.9016 14.1392 9.92293 14.0644 9.93989C13.9585 9.96393 12.2713 11.0791 9.00276 13.2855C8.52385 13.6143 8.09007 13.7746 7.70141 13.7662C7.27295 13.7569 6.44876 13.5239 5.83606 13.3247C5.08456 13.0805 4.48728 12.9513 4.53929 12.5364C4.56638 12.3203 4.86395 12.0993 5.43201 11.8734Z" fill="white"/>
<defs>
<linearGradient id="paint0_linear_7922_37500" x1="12" y1="0" x2="12" y2="23.822" gradientUnits="userSpaceOnUse">
<stop stop-color="#2AABEE"/>
<stop offset="1" stop-color="#229ED9"/>
</linearGradient>
</defs>
</svg>