<svg width="143" height="144" viewBox="0 0 143 144" xmlns="http://www.w3.org/2000/svg">
    <defs>
        <clipPath id="ugkv012f3a">
            <path d="M4500 0v5500H0V0h4500z"/>
        </clipPath>
        <clipPath id="6c8jeze5tb">
            <path d="M29.354 0c16.214 0 29.355 13.123 29.355 29.307 0 16.184-13.141 29.307-29.355 29.307C13.141 58.614 0 45.491 0 29.307 0 13.123 13.141 0 29.354 0zm7.137 25.149H31.78v8.705c0 1.529.218 2.559.561 3.37 1.061 2.433 3.339 2.995 4.774 2.995 1.934 0 3.369-.811 4.368-1.716l.655 1.404H46.1c-.249-.811-.249-1.997-.249-2.714V25.149H41.14v10.296c-.593.531-1.373.812-2.247.812-1.061 0-1.716-.437-2.09-1.124-.219-.405-.312-.904-.312-1.56v-8.424zm-13.697-6.021c-6.958 0-11.326 4.805-11.326 10.701 0 6.022 3.682 10.39 10.796 10.39 2.184 0 4.555-.374 7.082-1.747l-1.31-3.744c-1.529.905-3.027 1.529-5.18 1.529-3.868 0-6.302-2.652-6.302-6.49 0-3.526 1.934-6.677 6.365-6.677 1.934 0 3.775.468 5.491 1.373v-4.368c-1.435-.593-3.307-.967-5.616-.967z"/>
        </clipPath>
        <clipPath id="qg1phpwrtc">
            <path d="M2.059 0c.156.655.406 1.529.874 2.933L3.9 5.772H0l1.03-2.808C1.56 1.56 1.841.686 1.997 0z"/>
        </clipPath>
        <clipPath id="u6m1dyqlod">
            <path d="M29.354 0c16.214 0 29.355 13.123 29.355 29.307 0 16.184-13.141 29.307-29.355 29.307C13.141 58.614 0 45.491 0 29.307 0 13.123 13.141 0 29.354 0zm12.005 23.575c-1.81 0-3.463.718-4.961 1.872l-.468-1.498h-4.025v14.758h4.711v-9.984c.874-.686 2.028-1.092 2.996-1.092 1.747 0 1.996 1.31 1.996 2.839v8.237h4.712v-9.641c0-4.555-2.59-5.491-4.961-5.491zm-11.263-5.429H13.123l1.185 4.025h8.206L12.405 38.707h17.503v-4.025h-9.672l9.86-16.536z"/>
        </clipPath>
        <clipPath id="08rghq4yze">
            <path d="M29.354 0c16.214 0 29.355 13.123 29.355 29.307 0 16.184-13.141 29.306-29.355 29.306C13.141 58.613 0 45.491 0 29.307S13.141 0 29.354 0zm11.255 17.303h-4.711v18.314c0 2.683 1.498 4.025 4.368 4.025.936 0 2.184-.156 3.245-.593l-.905-3.619c-.343.125-.78.156-.936.156-.655 0-1.061-.25-1.061-1.154V17.303zm-15.007 1.435h-3.931L13.59 39.392h4.898l1.872-4.898h6.677l1.966 4.898h5.117l-8.518-20.654z"/>
        </clipPath>
        <clipPath id="62fha5zkef">
            <path d="M29.354 0c16.214 0 29.355 13.123 29.355 29.307 0 16.184-13.141 29.306-29.355 29.306C13.141 58.613 0 45.491 0 29.307S13.141 0 29.354 0zm10.553 25.149h-4.711v14.758h4.711V25.149zm-6.208-5.803H16.414v4.025h6.021v16.536h4.774V23.371h5.273l1.217-4.025zm3.868-1.342c-1.591 0-2.808 1.217-2.808 2.684 0 1.528 1.217 2.714 2.808 2.714 1.592 0 2.808-1.248 2.808-2.714 0-1.529-1.216-2.684-2.808-2.684z"/>
        </clipPath>
        <clipPath id="3ipduk1l7g">
            <path d="M68.496 0v68.4H0V0h68.496z"/>
        </clipPath>
        <clipPath id="1ntm387k9h">
            <path d="M34.248 0c18.915 0 34.248 15.312 34.248 34.2 0 18.889-15.333 34.2-34.248 34.2C15.334 68.4 0 53.089 0 34.2 0 15.312 15.334 0 34.248 0zm0 4.894C18.035 4.894 4.894 18.016 4.894 34.2s13.141 29.307 29.354 29.307c16.214 0 29.355-13.123 29.355-29.307 0-16.184-13.141-29.306-29.355-29.306z"/>
        </clipPath>
        <clipPath id="u60f09ilqi">
            <path d="M68.496 0v68.4H0V0h68.496z"/>
        </clipPath>
        <clipPath id="t399md1ncj">
            <path d="M34.248 0c18.915 0 34.248 15.312 34.248 34.2 0 18.889-15.333 34.2-34.248 34.2C15.334 68.4 0 53.089 0 34.2 0 15.312 15.334 0 34.248 0zm0 4.894C18.035 4.894 4.894 18.016 4.894 34.2s13.141 29.307 29.354 29.307c16.214 0 29.355-13.123 29.355-29.307 0-16.184-13.141-29.306-29.355-29.306z"/>
        </clipPath>
        <clipPath id="tzpo09j1vk">
            <path d="M68.496 0v68.4H0V0h68.496z"/>
        </clipPath>
        <clipPath id="6q2gh8oiyl">
            <path d="M34.248 0c18.915 0 34.248 15.312 34.248 34.2 0 18.888-15.333 34.2-34.248 34.2C15.334 68.4 0 53.088 0 34.2 0 15.312 15.334 0 34.248 0zm0 4.894C18.035 4.894 4.894 18.016 4.894 34.2s13.141 29.307 29.354 29.307c16.214 0 29.355-13.123 29.355-29.307 0-16.184-13.141-29.306-29.355-29.306z"/>
        </clipPath>
        <clipPath id="scw2i6nlqm">
            <path d="M34.248 0c18.915 0 34.248 15.312 34.248 34.2 0 18.889-15.333 34.2-34.248 34.2C15.334 68.4 0 53.089 0 34.2 0 15.312 15.334 0 34.248 0zm0 4.894C18.035 4.894 4.894 18.016 4.894 34.2s13.141 29.307 29.354 29.307c16.214 0 29.355-13.123 29.355-29.307 0-16.184-13.141-29.306-29.355-29.306z"/>
        </clipPath>
        <clipPath id="vngt73cmvn">
            <path d="m12.012 0 8.518 20.655h-5.117l-1.966-4.899H6.77l-1.872 4.899H0L8.081 0h3.931zm-1.841 6.178h-.062c-.156.686-.437 1.56-.967 2.964l-1.03 2.808h3.9l-.967-2.839c-.468-1.404-.718-2.278-.874-2.933z"/>
        </clipPath>
        <clipPath id="d22eefckuo">
            <path d="M4.711 0v17.129c0 .904.406 1.154 1.061 1.154.156 0 .593-.031.936-.156l.905 3.619c-1.061.437-2.309.593-3.245.593-2.87 0-4.368-1.342-4.368-4.025V0h4.711z"/>
        </clipPath>
        <clipPath id="1z5dxwp8np">
            <path d="M11.326 0c2.309 0 4.181.375 5.616.967v4.368a11.657 11.657 0 0 0-5.491-1.372c-4.431 0-6.365 3.151-6.365 6.676 0 3.838 2.434 6.49 6.302 6.49 2.153 0 3.651-.624 5.18-1.529l1.31 3.744c-2.527 1.373-4.898 1.747-7.082 1.747C3.682 21.091 0 16.723 0 10.702 0 4.805 4.368 0 11.326 0z"/>
        </clipPath>
        <clipPath id="8opes00r0q">
            <path d="M4.711 0v8.424c0 .655.093 1.154.312 1.56.374.686 1.029 1.123 2.09 1.123.874 0 1.654-.281 2.247-.811V0h4.711v12.043c0 .718 0 1.903.249 2.715h-3.962l-.655-1.404c-.999.904-2.434 1.716-4.368 1.716-1.435 0-3.713-.562-4.774-2.996C.218 11.263 0 10.234 0 8.705V0h4.711z"/>
        </clipPath>
        <clipPath id="yzz7i5nmmr">
            <path d="m17.285 0-1.217 4.025h-5.273v16.536H6.021V4.025H0V0h17.285z"/>
        </clipPath>
        <clipPath id="gneiayk5is">
            <path d="M2.808 0C4.4 0 5.616 1.154 5.616 2.683c0 1.467-1.216 2.715-2.808 2.715C1.217 5.398 0 4.212 0 2.683 0 1.217 1.217 0 2.808 0z"/>
        </clipPath>
        <clipPath id="t3ojvkglvt">
            <path d="M143 0v144H0V0h143z"/>
        </clipPath>
        <clipPath id="249jmehwiu">
            <path d="M4.711 0v14.758H0V0h4.711z"/>
        </clipPath>
        <clipPath id="1r0d9iq73v">
            <path d="m17.691 0-9.86 16.536h9.672v4.025H0L10.109 4.025H1.903L.718 0h16.973z"/>
        </clipPath>
        <clipPath id="wu4lqehc2w">
            <path d="M9.454 0c2.371 0 4.961.936 4.961 5.491v9.641H9.703V6.895c0-1.529-.249-2.839-1.996-2.839-.968 0-2.122.406-2.996 1.092v9.984H0V.374h4.025l.468 1.498C5.991.718 7.644 0 9.454 0z"/>
        </clipPath>
    </defs>
    <g clip-path="url(#ugkv012f3a)" transform="translate(-2812 -729)">
        <g clip-path="url(#6c8jeze5tb)" transform="translate(2816.894 733.893)">
            <path fill="#FDFDFD" d="M0 0h58.709v58.614H0V0z"/>
        </g>
        <g clip-path="url(#qg1phpwrtc)" transform="translate(2838.596 833.723)">
            <path fill="#FDFDFD" d="M0 0h3.9v5.772H0V0z"/>
        </g>
        <g clip-path="url(#u6m1dyqlod)" transform="translate(2891.398 809.493)">
            <path fill="#FDFDFD" d="M0 0h58.709v58.614H0V0z"/>
        </g>
        <g clip-path="url(#08rghq4yze)" transform="translate(2816.894 808.808)">
            <path fill="#FDFDFD" d="M0 0h58.709v58.613H0V0z"/>
        </g>
        <g clip-path="url(#62fha5zkef)" transform="translate(2891.398 733.893)">
            <path fill="#FDFDFD" d="M0 0h58.709v58.613H0V0z"/>
        </g>
        <g clip-path="url(#3ipduk1l7g)" transform="translate(2812 729)">
            <g clip-path="url(#1ntm387k9h)">
                <path fill="#464646" d="M0 0h68.496v68.4H0V0z"/>
            </g>
        </g>
        <g clip-path="url(#u60f09ilqi)" transform="translate(2886.504 729)">
            <g clip-path="url(#t399md1ncj)">
                <path fill="#464646" d="M0 0h68.496v68.4H0V0z"/>
            </g>
        </g>
        <g clip-path="url(#tzpo09j1vk)" transform="translate(2886.504 804.6)">
            <g clip-path="url(#6q2gh8oiyl)">
                <path fill="#464646" d="M0 0h68.496v68.4H0V0z"/>
            </g>
        </g>
        <g clip-path="url(#scw2i6nlqm)" transform="translate(2812 803.914)">
            <path fill="#464646" d="M0 0h68.496v68.4H0V0z"/>
        </g>
        <g clip-path="url(#vngt73cmvn)" transform="translate(2830.484 827.545)">
            <path fill="#464646" d="M0 0h20.53v20.655H0V0z"/>
        </g>
        <g clip-path="url(#d22eefckuo)" transform="translate(2852.792 826.11)">
            <path fill="#464646" d="M0 0h7.613v22.339H0V0z"/>
        </g>
        <g clip-path="url(#1z5dxwp8np)" transform="translate(2828.362 753.02)">
            <path fill="#464646" d="M0 0h17.878v21.091H0V0z"/>
        </g>
        <g clip-path="url(#8opes00r0q)" transform="translate(2848.674 759.042)">
            <path fill="#464646" d="M0 0h14.32v15.07H0V0z"/>
        </g>
        <g clip-path="url(#yzz7i5nmmr)" transform="translate(2907.812 753.239)">
            <path fill="#464646" d="M0 0h17.285v20.561H0V0z"/>
        </g>
        <g clip-path="url(#gneiayk5is)" transform="translate(2926.157 751.898)">
            <path fill="#464646" d="M0 0h5.616v5.398H0V0z"/>
        </g>
        <g clip-path="url(#t3ojvkglvt)" transform="translate(2812 729)">
            <g clip-path="url(#249jmehwiu)" transform="translate(114.594 30.042)">
                <path fill="#464646" d="M0 0h4.711v14.758H0V0z"/>
            </g>
            <g clip-path="url(#1r0d9iq73v)" transform="translate(91.803 98.64)">
                <path fill="#464646" d="M0 0h17.691v20.561H0V0z"/>
            </g>
            <g clip-path="url(#wu4lqehc2w)" transform="translate(111.303 104.068)">
                <path fill="#464646" d="M0 0h14.415v15.132H0V0z"/>
            </g>
        </g>
    </g>
</svg>
