<svg width="123" height="123" viewBox="0 0 123 123" xmlns="http://www.w3.org/2000/svg">
    <path d="M34 89v34H0V89h34zm89 14v20h-20v-4.667h-9V123H84v-4.667h5V109h10v4.667h5V118h14v-15h5zm-45 15v5H68v-5h10zM29.143 93.857H4.857v24.286h24.286V93.857zM70 109v5H60v3h-5v-5h5v-3h10zm44 0v5h-5v-5h5zM64.556 68.385v9.692H69.5V70H65v-5h-5v-5h9v-5h5v5h-4v8.384h4.444v-4.846H78V59h5v5h-3.612v4.385h9.89v-9.693h-4.945v-4.846h4.945V49h3.055v-5H83v-5h14v10h-2.778v4.846H103V49.4h5V39h15v5.2h-10v5.2h10V65h-14v3h-5v-4.462h-4.833v4.847h4.944v9.692H114v4.846h-4.944v4.846h-4.945v4.846h4.945v4.847h-4.945v4.846l4.889-.001V98h5v5h-4.945v4.154h-9.888v-4.846h-9.89v4.846h-4.944V112H79.39v-4.846H69.5v-4.846h-9.889v4.846h-4.944v-9.692h-4.945v9.692h-4.944V112h-4.945V97.462h4.945v-4.847h4.944V87.77h-9.889v-4.846H25v-4.59h-4.667V83h-4.666v-4.667H11V69h3V54.4h4.91v5.2h14.726v-5.2h-4.909v-5.067H25V54h-5v-9.333H10V40h15v4.667l4-.001V40h5v4h4.545v10.4h9.819V44h4.909v5.2H68v5.2H53.273v5.2h-9.818v5.2H18.909V70h-3.243v3.667H25v4.41h9.889V73.23h14.833v-4.846h-4.944v-4.847H59.61v4.847h-4.944v4.846h4.944v-4.846h4.945zM25 98v14H11V98h14zm54.389-5.385h-4.945v9.693h4.945v-9.693zm19.778-9.692H84.333v14.539h14.834V82.923zm-24.723 0H69.5v4.846h-9.889v4.846h-4.944v4.847h9.889v-4.847h9.888v-9.692zM94 89v5h-5v-5h5zm24-6v5h5v5h-10V83h5zm5-14v14h-4.667v-9.333H109V69h14zM14 49v5h-4v9.667H5V83H0V54h9v-5h5zm50.556 29.077H59.61v4.846h4.945v-4.846zm-9.89 0H39.834v4.846h14.834v-4.846zm39.556-9.692h-4.944v4.846h-9.89v4.846h14.834v-9.692zM34 69v5h-5v-5h5zm65.167-10.308h-4.945v4.846h4.945v-4.846zM113 54.6h-8.889V63H108v-3.2h5v-5.2zM79 39v10h4v5h-5v-5h-4V39h5zm-45.364 6H30v4.2h3.636V45zM68 40v5h-5v-5h5zM55 14v4.833h-5v4.834h5v9.666h4V29h5v5h-4v9h-5v-4.833h-5V43H40V23.667h5V14h10zm-5 14.5h-5v9.667h5V28.5zm24 .5v5h-5v-5h5zm9 0v5h-5v-5h5zm40-29v34H89V0h34zM34 0v34H0V0h34zm84.143 4.857H93.857v24.286h24.286V4.857zm-89 0H4.857v24.286h24.286V4.857zM78.8 0v20.8H84V26H63.2v-5.2h10.4V10.4h-5.2V5.2h-5.2v5.2H60V14h-5V9h3V0h20.8zM112 11v14H98V11h14zm-87 0v14H11V11h14zM45 0v14h-5V0h5zm9 0v5h-5V0h5z" fill="#464646" fill-rule="nonzero"/>
</svg>
