<svg width="302" height="89" xmlns="http://www.w3.org/2000/svg">
		<defs>
				<clipPath id="n">
						<path d="m5.502 0 2.306 6.265L10.116 0h5.5v13.06h-3.983V5.207L8.696 13.06H6.92L3.983 5.21v7.85H0V0h5.502z"/>
				</clipPath>
				<clipPath id="a">
						<path d="M4500 0v5500H0V0h4500z"/>
				</clipPath>
				<clipPath id="c">
						<path d="M12.06 0c6.651 0 12.06 5.21 12.06 11.613 0 6.405-5.409 11.614-12.06 11.614C5.411 23.227 0 18.017 0 11.613 0 5.21 5.411 0 12.06 0z"/>
				</clipPath>
				<clipPath id="d">
						<path d="M12.06 0c6.65 0 12.06 5.21 12.06 11.613 0 6.405-5.41 11.614-12.06 11.614S0 18.017 0 11.613C0 5.21 5.41 0 12.06 0z"/>
				</clipPath>
				<clipPath id="e">
						<path d="m1.3 0 1.303 4.21H0L1.3 0z"/>
				</clipPath>
				<clipPath id="f">
						<path d="M2.426 0c.67 0 1.3.315 1.3 1.019 0 .724-.63 1.038-1.3 1.038H0V0z"/>
				</clipPath>
				<clipPath id="g">
						<path d="m1.302 0 1.302 4.21H0L1.302 0z"/>
				</clipPath>
				<clipPath id="h">
						<path d="m28.843 0 25.761 21.573v31.19H43.937c-2.394-6.86-9.063-11.815-16.912-11.815-7.85 0-14.518 4.955-16.912 11.815H0V0h28.843z"/>
				</clipPath>
				<clipPath id="i">
						<path d="M12.06 0c6.65 0 12.06 5.21 12.06 11.613 0 6.405-5.41 11.614-12.06 11.614C5.411 23.227 0 18.017 0 11.613 0 5.21 5.411 0 12.06 0z"/>
				</clipPath>
				<clipPath id="j">
						<path d="M3.154 0c1.913 0 3.154 1.45 3.154 3.27S5.067 6.54 3.154 6.54C1.242 6.54 0 5.09 0 3.27S1.242 0 3.154 0z"/>
				</clipPath>
				<clipPath id="k">
						<path d="M228.642 0v60.278h-9.003c-2.396-6.857-9.064-11.813-16.914-11.813-7.848 0-14.518 4.956-16.912 11.813h-94.21c-2.394-6.857-9.063-11.813-16.912-11.813-7.85 0-14.518 4.956-16.912 11.813H48.37c-2.394-6.857-9.063-11.813-16.912-11.813-7.85 0-14.517 4.956-16.912 11.813H0V0h228.642zM101.85 22.606c-4.06 0-7.196 2.74-7.196 6.754 0 4.013 3.135 6.755 7.196 6.755 4.063 0 7.198-2.742 7.198-6.755 0-4.014-3.135-6.754-7.198-6.754zm72.03 9.32c-1.145 0-2.11.958-2.11 2.094 0 1.135.965 2.095 2.11 2.095 1.144 0 2.11-.96 2.11-2.095 0-1.136-.966-2.094-2.11-2.094zm25.826-9.105h-4.042v7.695c0 3.23 2.07 5.599 6.506 5.599 4.437 0 6.488-2.37 6.488-5.62v-7.674h-4.042v7.557c0 1.254-.828 2.252-2.446 2.252-1.635 0-2.464-.998-2.464-2.252V22.82zm-174.438 0h-5.502V35.88h3.983v-7.851l2.937 7.85h1.776l2.937-7.85v7.85h3.983V22.822h-5.5l-2.308 6.265-2.306-6.265zm24.497 0h-9.978V35.88h9.978v-3.446H43.77v-1.429h5.856v-3.447H43.77v-1.292h5.995v-3.445zm14.361 0h-11.02v3.445h3.528v9.614h3.983v-9.614h3.51v-3.445zm10.952 0H70.07L65.22 35.88h4.515l.473-1.528h4.733l.473 1.528h4.515l-4.851-13.06zm11.82 0h-3.984V35.88h8.972v-3.446h-4.989v-9.613zm35.763 0h-11.023v3.445h3.53v9.614h3.983v-9.614h3.51v-3.445zm13.673 0h-9.979V35.88h9.98v-3.446h-5.995v-1.429h5.856v-3.447h-5.856v-1.292h5.994v-3.445zm8.033 0h-3.984V35.88h3.984v-3.622l.728-.98 2.959 4.602h4.851l-5.186-6.99 4.968-6.07h-4.87l-3.45 4.896V22.82zm19.961 0h-5.008l-4.85 13.059h4.516l.473-1.528h4.732l.473 1.528h4.516l-4.852-13.06zm22.712 0h-7.02V35.88h3.984v-4.112h1.439l1.814 4.112h4.534l-2.386-4.62c1.046-.509 2.367-1.704 2.367-3.956 0-2.448-1.656-4.483-4.732-4.483z"/>
				</clipPath>
				<clipPath id="l">
						<path d="M301.23 0v89H0V0h301.23z"/>
				</clipPath>
				<clipPath id="m">
						<path d="M240.261 0v7.517h31.522l29.448 24.661v39.64h-15.532C285.587 81.311 277.625 89 267.84 89c-9.782 0-17.747-7.689-17.858-17.182h-23.587C226.283 81.311 218.319 89 208.535 89c-9.783 0-17.748-7.689-17.86-17.182H98.362C98.247 81.311 90.285 89 80.5 89c-9.785 0-17.748-7.689-17.86-17.182h-7.514C55.015 81.311 47.053 89 37.268 89c-9.783 0-17.747-7.689-17.859-17.182H0V0h240.261zm27.58 60.005c-6.65 0-12.061 5.21-12.061 11.613 0 6.405 5.411 11.614 12.06 11.614 6.65 0 12.06-5.21 12.06-11.614 0-6.403-5.41-11.613-12.06-11.613zm-59.306 0c-6.65 0-12.06 5.21-12.06 11.613 0 6.405 5.41 11.614 12.06 11.614s12.06-5.21 12.06-11.614c0-6.403-5.41-11.613-12.06-11.613zm-128.035 0c-6.65 0-12.058 5.21-12.058 11.613 0 6.405 5.409 11.614 12.058 11.614 6.651 0 12.06-5.21 12.06-11.614 0-6.403-5.409-11.613-12.06-11.613zm-43.232 0c-6.65 0-12.06 5.21-12.06 11.613 0 6.405 5.41 11.614 12.06 11.614s12.06-5.21 12.06-11.614c0-6.403-5.41-11.613-12.06-11.613zm232.393-46.719h-28.845V66.05h10.112c2.394-6.858 9.063-11.813 16.912-11.813 7.85 0 14.518 4.955 16.912 11.813h10.668V34.861l-25.76-21.575zM234.45 5.77H5.81v60.28h14.547c2.396-6.858 9.063-11.813 16.912-11.813 7.85 0 14.518 4.955 16.912 11.813h9.408c2.394-6.858 9.063-11.813 16.912-11.813 7.85 0 14.518 4.955 16.912 11.813h94.21c2.395-6.858 9.065-11.813 16.913-11.813 7.85 0 14.518 4.955 16.913 11.813h9.004V5.77z"/>
				</clipPath>
				<clipPath id="b">
						<path d="M12.06 0c6.65 0 12.06 5.21 12.06 11.613 0 6.405-5.41 11.614-12.06 11.614C5.411 23.227 0 18.017 0 11.613 0 5.21 5.411 0 12.06 0z"/>
				</clipPath>
				<clipPath id="o">
						<path d="M9.977 0v3.446H3.983v1.292h5.856v3.447H3.983v1.429h5.994v3.445H0V0h9.977z"/>
				</clipPath>
				<clipPath id="p">
						<path d="M11.023 0v3.446h-3.51v9.613H3.53V3.446H0V0h11.023z"/>
				</clipPath>
				<clipPath id="q">
						<path d="m9.86 0 4.85 13.06h-4.514l-.474-1.528H4.99l-.472 1.527H0L4.852 0h5.007zM7.354 3.876l-1.3 4.21h2.603l-1.303-4.21z"/>
				</clipPath>
				<clipPath id="r">
						<path d="M3.983 0v9.614h4.989v3.445H0V0h3.983z"/>
				</clipPath>
				<clipPath id="s">
						<path d="M7.198 0c4.062 0 7.197 2.742 7.197 6.754 0 4.015-3.135 6.757-7.197 6.757C3.135 13.51 0 10.769 0 6.754 0 2.742 3.135 0 7.198 0zm0 3.485c-1.913 0-3.154 1.45-3.154 3.27s1.241 3.27 3.154 3.27c1.912 0 3.154-1.45 3.154-3.27s-1.242-3.27-3.154-3.27z"/>
				</clipPath>
				<clipPath id="t">
						<path d="M11.023 0v3.446h-3.51v9.613H3.53V3.446H0V0h11.023z"/>
				</clipPath>
				<clipPath id="u">
						<path d="M9.977 0v3.446H3.983v1.292h5.856v3.447H3.983v1.429h5.994v3.445H0V0h9.977z"/>
				</clipPath>
				<clipPath id="v">
						<path d="M3.983 0v4.895L7.433 0h4.871l-4.97 6.07 5.187 6.99H7.669L4.713 8.457l-.73.98v3.621H0V0h3.983z"/>
				</clipPath>
				<clipPath id="w">
						<path d="m9.86 0 4.85 13.06h-4.516l-.472-1.528H4.99l-.472 1.527H0L4.852 0h5.007zM7.354 3.876l-1.302 4.21h2.605l-1.303-4.21z"/>
				</clipPath>
				<clipPath id="x">
						<path d="M2.11 0c1.143 0 2.11.958 2.11 2.095 0 1.134-.967 2.094-2.11 2.094C.966 4.19 0 3.23 0 2.095 0 .958.966 0 2.11 0z"/>
				</clipPath>
				<clipPath id="y">
						<path d="M7.02 0c3.075 0 4.731 2.036 4.731 4.483 0 2.252-1.321 3.446-2.365 3.956l2.386 4.62H7.236L5.422 8.948h-1.44v4.111H0V0zm-.611 3.446H3.983v2.056h2.426c.67 0 1.3-.315 1.3-1.038 0-.705-.63-1.018-1.3-1.018z"/>
				</clipPath>
				<clipPath id="z">
						<path d="M4.044 0v7.557c0 1.254.827 2.252 2.464 2.252 1.617 0 2.444-.998 2.444-2.252V0h4.042v7.675c0 3.25-2.05 5.62-6.486 5.62S0 10.924 0 7.694V0h4.044z"/>
				</clipPath>
		</defs>
		<g clip-path="url(#a)" transform="translate(-1775 -571)">
				<g clip-path="url(#b)" transform="translate(1800.208 631.004)">
						<path fill="#FDFDFD" d="M0 0h24.12v23.227H0V0z"/>
				</g>
				<g clip-path="url(#c)" transform="translate(1971.474 631.004)">
						<path fill="#FDFDFD" d="M0 0h24.12v23.227H0V0z"/>
				</g>
				<g clip-path="url(#d)" transform="translate(1843.44 631.004)">
						<path fill="#FDFDFD" d="M0 0h24.12v23.227H0V0z"/>
				</g>
				<g clip-path="url(#e)" transform="translate(1852.082 603.466)">
						<path fill="#FDFDFD" d="M0 0h2.603v4.21H0V0z"/>
				</g>
				<g clip-path="url(#f)" transform="translate(1964.811 603.035)">
						<path fill="#FDFDFD" d="M0 0h3.726v2.057H0V0z"/>
				</g>
				<g clip-path="url(#g)" transform="translate(1941.33 603.466)">
						<path fill="#FDFDFD" d="M0 0h2.604v4.21H0V0z"/>
				</g>
				<g clip-path="url(#h)" transform="translate(2015.816 584.286)">
						<path fill="#FDFDFD" d="M0 0h54.604v52.763H0V0z"/>
				</g>
				<g clip-path="url(#i)" transform="translate(2030.78 631.004)">
						<path fill="#FDFDFD" d="M0 0h24.12v23.227H0V0z"/>
				</g>
				<g clip-path="url(#j)" transform="translate(1879.505 602.86)">
						<path fill="#FDFDFD" d="M0 0h6.308v6.54H0V0z"/>
				</g>
				<g clip-path="url(#k)" transform="translate(1780.81 576.77)">
						<path fill="#FDFDFD" d="M0 0h228.642v60.278H0V0z"/>
				</g>
				<g clip-path="url(#l)" transform="translate(1775 571)">
						<g clip-path="url(#m)">
								<path fill="#464646" d="M0 0h301.23v89H0V0z"/>
						</g>
				</g>
				<g clip-path="url(#n)" transform="translate(1800.574 599.59)">
						<path fill="#464646" d="M0 0h15.616v13.06H0V0z"/>
				</g>
				<g clip-path="url(#o)" transform="translate(1820.596 599.59)">
						<path fill="#464646" d="M0 0h9.977v13.06H0V0z"/>
				</g>
				<g clip-path="url(#p)" transform="translate(1833.912 599.59)">
						<path fill="#464646" d="M0 0h11.023v13.06H0V0z"/>
				</g>
				<g clip-path="url(#q)" transform="translate(1846.027 599.59)">
						<path fill="#464646" d="M0 0h14.71v13.06H0V0z"/>
				</g>
				<g clip-path="url(#r)" transform="translate(1863.723 599.59)">
						<path fill="#464646" d="M0 0h8.972v13.06H0V0z"/>
				</g>
				<g clip-path="url(#s)" transform="translate(1875.462 599.374)">
						<path fill="#464646" d="M0 0h14.395v13.51H0V0z"/>
				</g>
				<g clip-path="url(#t)" transform="translate(1892.447 599.59)">
						<path fill="#464646" d="M0 0h11.023v13.06H0V0z"/>
				</g>
				<g clip-path="url(#u)" transform="translate(1907.165 599.59)">
						<path fill="#464646" d="M0 0h9.977v13.06H0V0z"/>
				</g>
				<g clip-path="url(#v)" transform="translate(1921.192 599.59)">
						<path fill="#464646" d="M0 0h12.521v13.06H0V0z"/>
				</g>
				<g clip-path="url(#w)" transform="translate(1935.277 599.59)">
						<path fill="#464646" d="M0 0h14.71v13.06H0V0z"/>
				</g>
				<g clip-path="url(#x)" transform="translate(1952.578 608.695)">
						<path fill="#464646" d="M0 0h4.22v4.19H0V0z"/>
				</g>
				<g clip-path="url(#y)" transform="translate(1960.828 599.59)">
						<path fill="#464646" d="M0 0h11.772v13.06H0V0z"/>
				</g>
				<g clip-path="url(#z)" transform="translate(1976.471 599.59)">
						<path fill="#464646" d="M0 0h12.994v13.294H0V0z"/>
				</g>
		</g>
</svg>
