<svg width="44" height="43" viewBox="0 0 44 43" xmlns="http://www.w3.org/2000/svg">
    <defs>
        <clipPath id="yhwovxtaga">
            <path d="M4500 0v5500H0V0h4500z"/>
        </clipPath>
        <clipPath id="zqdlotab9b">
            <path d="M21.643 0c11.953 0 21.643 9.626 21.643 21.5S33.596 43 21.643 43C9.69 43 0 33.374 0 21.5S9.69 0 21.643 0z"/>
        </clipPath>
        <clipPath id="enqnp8zjvd">
            <path d="M24.456 1.42c-.062.87-.562 3.915-1.063 7.208l-1.564 9.756-.004.037c-.028.225-.222 1.416-1.184 1.64-1.064.25-2.815-.87-3.128-1.118-.142-.105-1.634-1.052-3.195-2.1l-.447-.303c-1.042-.707-2.06-1.43-2.675-1.946-.438-.373-.939-1.119.062-1.989 2.252-2.05 4.942-4.598 6.568-6.214.75-.745 1.501-2.485-1.626-.373l-8.82 5.904-.02.012c-.153.083-1.137.562-2.857.05l-.406-.123-.41-.126C2.044 11.227.436 10.68.436 10.68l-.013-.008c-.138-.093-1.35-.978 1.076-1.918l14.575-5.966c1.438-.621 6.317-2.61 6.317-2.61s2.252-.87 2.064 1.243z"/>
        </clipPath>
        <linearGradient id="wgxm1rthfc" x1="28.859" y1="7.168" x2="18.037" y2="32.25" gradientUnits="userSpaceOnUse">
            <stop stop-color="#36AEE2" offset="0%"/>
            <stop stop-color="#1D96C8" offset="100%"/>
        </linearGradient>
    </defs>
    <g clip-path="url(#yhwovxtaga)" transform="translate(-2612 -1222)">
        <g clip-path="url(#zqdlotab9b)" transform="translate(2612 1222)">
            <path fill="url(#wgxm1rthfc)" d="M0 0h43.286v43H0V0z"/>
        </g>
        <g clip-path="url(#enqnp8zjvd)" transform="translate(2619.507 1234.561)">
            <path fill="#FFF" d="M0 0h24.468v20.098H0V0z"/>
        </g>
    </g>
</svg>
