<svg width="43" height="43" viewBox="0 0 43 43" xmlns="http://www.w3.org/2000/svg">
    <defs>
        <clipPath id="64l7wr7l2a">
            <path d="M4500 0v5500H0V0h4500z"/>
        </clipPath>
        <clipPath id="ysoa9adgmb">
            <path d="M26.472 1.312 38.66 8.279a8.605 8.605 0 0 1 3.167 3.143A8.602 8.602 0 0 1 43 15.727v18.654A8.605 8.605 0 0 1 34.4 43H8.6A8.605 8.605 0 0 1 0 34.38V15.727a8.619 8.619 0 0 1 4.327-7.462L16.53 1.312a10.076 10.076 0 0 1 9.943 0zM21.5 2.845a7.165 7.165 0 0 0-3.56.942L5.752 10.725a5.756 5.756 0 0 0-2.89 4.976v18.68a5.731 5.731 0 0 0 1.677 4.063 5.719 5.719 0 0 0 4.06 1.677H34.4a5.719 5.719 0 0 0 4.061-1.677 5.73 5.73 0 0 0 1.676-4.064V15.727a5.754 5.754 0 0 0-2.89-5.002L25.06 3.787a7.165 7.165 0 0 0-3.56-.942z"/>
        </clipPath>
        <clipPath id="6nciuo40pc">
            <path d="m1.062 0 11.113 4.491a7.123 7.123 0 0 0 5.374 0L28.688.026l1.062 2.69L18.61 7.18c-1.194.467-2.467.7-3.748.687a10.044 10.044 0 0 1-3.723-.726L0 2.689 1.062 0z"/>
        </clipPath>
    </defs>
    <g clip-path="url(#64l7wr7l2a)" transform="translate(-2486 -1222)">
        <g opacity="86.152%">
            <g clip-path="url(#ysoa9adgmb)" transform="translate(2486 1222)">
                <path fill="#FFF" d="M0 0h43v43H0V0z"/>
            </g>
            <g clip-path="url(#6nciuo40pc)" transform="translate(2492.638 1239.248)">
                <path fill="#FFF" d="M0 0h29.75v7.867H0V0z"/>
            </g>
        </g>
    </g>
</svg>
