<svg width="272" height="25" viewBox="0 0 272 25" xmlns="http://www.w3.org/2000/svg">
    <path d="M30.368 24.819V0H19.67l-4.486 11.907L10.698 0H0v24.819h7.745V9.898l5.714 14.92h3.45l5.714-14.92v14.92h7.745zm24.981 0v-6.55H43.693v-2.716H55.08V9.005H43.693V6.549h11.656V0H35.947v24.819H55.35zm19.77 0V6.549h6.826V0H60.511v6.549h6.864v18.27h7.745zm35.565 0L101.25 0h-9.74L82.08 24.819h8.781l.92-2.903h9.203l.92 2.903h8.78zm-11.772-9.452h-5.061l2.53-8 2.531 8zm33.565 9.452v-6.55h-9.7V0h-7.746v24.819h17.446zm15.721 0c7.899 0 13.995-5.035 13.995-12.41C162.193 5.037 156.097 0 148.198 0c-7.899 0-13.995 5.036-13.995 12.41 0 7.374 6.096 12.41 13.995 12.41zm0-6.402c-3.72 0-6.135-2.662-6.135-6.007 0-3.345 2.416-6.007 6.135-6.007 3.72 0 6.135 2.662 6.135 6.007 0 3.345-2.416 6.007-6.135 6.007zm30.57 6.402V6.549h6.825V0h-21.434v6.549h6.863v18.27h7.746zm31.753 0v-6.55h-11.657v-2.716h11.388V9.005h-11.388V6.549h11.657V0h-19.402v24.819h19.402zm30.708 0-10.084-13.284L240.807 0h-9.47l-6.71 9.302V0h-7.746v24.819h7.745v-6.884l1.42-1.86 5.75 8.744h9.433zm30.618 0L262.414 0h-9.74l-9.432 24.819h8.781l.92-2.903h9.203l.92 2.903h8.78zm-11.772-9.452h-5.061l2.53-8 2.531 8z" fill="#FFF" fill-rule="nonzero"/>
</svg>
