<?xml version="1.0" encoding="UTF-8" standalone="no"?>
<!-- Created with Inkscape (http://www.inkscape.org/) -->

<svg
   xmlns:dc="http://purl.org/dc/elements/1.1/"
   xmlns:cc="http://creativecommons.org/ns#"
   xmlns:rdf="http://www.w3.org/1999/02/22-rdf-syntax-ns#"
   xmlns:svg="http://www.w3.org/2000/svg"
   xmlns="http://www.w3.org/2000/svg"
   xmlns:sodipodi="http://sodipodi.sourceforge.net/DTD/sodipodi-0.dtd"
   xmlns:inkscape="http://www.inkscape.org/namespaces/inkscape"
   id="svg6106"
   version="1.1"
   inkscape:version="0.91 r13725"
   xml:space="preserve"
   width="30mm"
   height="30mm"
   viewBox="0 0 106.29921 106.29921"
   sodipodi:docname="lan.svg"><metadata
     id="metadata6112"><rdf:RDF><cc:Work
         rdf:about=""><dc:format>image/svg+xml</dc:format><dc:type
           rdf:resource="http://purl.org/dc/dcmitype/StillImage" /><dc:title></dc:title></cc:Work></rdf:RDF></metadata><defs
     id="defs6110"><clipPath
       clipPathUnits="userSpaceOnUse"
       id="clipPath6122"><path
         d="m 3931.31,2447.01 0,2044.89 107.67,62.24 -107.67,62.31 0,1263.55 -21.63,0 1585.91,0 0,-2843.35 c -276.7,-104.01 -437.78,-163.55 -714.44,-267.6 -280.9,-105.58 -565.63,-210.64 -846.51,-316.27 0.61,-1.62 1.1,-2.93 1.49,-3.97 l -0.06,-0.02 c -0.01,0.03 -0.01,0.05 -0.01,0.05 0,0 0,-0.02 0.01,-0.05 l -4.76,-1.78"
         id="path6124"
         inkscape:connector-curvature="0" /></clipPath><linearGradient
       x1="0"
       y1="0"
       x2="1"
       y2="0"
       gradientUnits="userSpaceOnUse"
       gradientTransform="matrix(2683.46,2778.81,2778.81,-2683.46,3360.91,2571.25)"
       spreadMethod="pad"
       id="linearGradient6126"><stop
         style="stop-opacity:1;stop-color:#0d1925"
         offset="0"
         id="stop6128" /><stop
         style="stop-opacity:1;stop-color:#0d1925"
         offset="0.226994"
         id="stop6130" /><stop
         style="stop-opacity:1;stop-color:#4a5d74"
         offset="0.981595"
         id="stop6132" /><stop
         style="stop-opacity:1;stop-color:#4a5d74"
         offset="1"
         id="stop6134" /></linearGradient><clipPath
       clipPathUnits="userSpaceOnUse"
       id="clipPath6198"><path
         d="m 5495.59,2842.48 0,188.77 0,5.4 c 0.02,0.01 0.01,0.01 0.03,0.02 2.04,-5.39 0,-46.67 0,-61.67 0,0 0,-27.5 0,-57.5 0,-3.61 2.97,-13.36 3.22,-14.3 3.17,-47.64 -3.22,-13.63 -3.22,-60.7 -0.01,-0.01 -0.02,-0.01 -0.03,-0.02"
         id="path6200"
         inkscape:connector-curvature="0" /></clipPath><clipPath
       clipPathUnits="userSpaceOnUse"
       id="clipPath6210"><path
         d="m 3936.07,2448.79 c -0.01,0.03 -0.01,0.05 -0.01,0.05 0,0 0,-0.02 0.01,-0.05 l 0,0 m 0.06,0.02 c -0.39,1.04 -0.88,2.35 -1.49,3.97 280.88,105.63 565.61,210.69 846.51,316.27 276.66,104.05 437.74,163.59 714.44,267.6 l 0,-5.4 -1559.46,-582.44"
         id="path6212"
         inkscape:connector-curvature="0" /></clipPath><clipPath
       clipPathUnits="userSpaceOnUse"
       id="clipPath6222"><path
         d="m 3940.9,2436.27 c -1.73,4.02 -1.73,4.02 -2.76,7.02 -0.85,2.49 -1.03,3 -1.04,3 0,0 0.01,-0.06 0.03,-0.13 0.01,-0.03 0.02,-0.06 0.02,-0.09 -0.21,0.56 -0.53,1.44 -1.02,2.74 l 1559.46,582.44 0,-188.77 c -46.02,-27.53 -410.92,-147.49 -654.04,-226.65 -233.22,-75.95 -546.11,-142.16 -900.65,-179.56 m -3.45,8.98 c -0.01,0 -0.16,0.39 -0.36,0.91 0.04,-0.09 0.05,-0.12 0.06,-0.12 0.01,0 0,0.01 0,0.03 0.22,-0.58 0.3,-0.82 0.3,-0.82 m -0.36,0.91 c -0.09,0.19 -0.28,0.68 -0.67,1.71 -0.2,0.53 -0.31,0.82 -0.35,0.92 l 0,0 c 0.08,-0.19 0.38,-0.97 0.68,-1.75 0.11,-0.3 0.23,-0.61 0.34,-0.88"
         id="path6224"
         inkscape:connector-curvature="0" /></clipPath></defs><sodipodi:namedview
     pagecolor="#ffffff"
     bordercolor="#666666"
     borderopacity="1"
     objecttolerance="10"
     gridtolerance="10"
     guidetolerance="10"
     inkscape:pageopacity="0"
     inkscape:pageshadow="2"
     inkscape:window-width="1549"
     inkscape:window-height="1109"
     id="namedview6108"
     showgrid="false"
     inkscape:zoom="0.90817525"
     inkscape:cx="238.2875"
     inkscape:cy="481.57958"
     inkscape:window-x="20"
     inkscape:window-y="42"
     inkscape:window-maximized="0"
     inkscape:current-layer="g6114"
     units="mm" /><g
     id="g6114"
     inkscape:groupmode="layer"
     inkscape:label="ink_ext_XXXXXX"
     transform="matrix(1.25,0,0,-1.25,0,106.29921)"><path
       inkscape:connector-curvature="0"
       id="path6298"
       style="fill:#2f3a46;fill-opacity:1;fill-rule:nonzero;stroke:none"
       d="m 66.105374,23.183149 c 0,-1.93 -1.57,-3.5 -3.5,-3.5 l -40.831,0 c -1.93,0 -3.5,1.57 -3.5,3.5 l 0,40.834 c 0,1.93 1.57,3.5 3.5,3.5 l 40.831,0 c 1.93,0 3.5,-1.57 3.5,-3.5 l 0,-40.834 z m -3.5,47.834 -40.831,0 c -3.85,0 -7.001,-3.15 -7.001,-7 l 0,-40.834 c 0,-3.85 3.151,-7 7.001,-7 l 40.831,0 c 3.85,0 7,3.15 7,7 l 0,40.834 c 0,3.85 -3.15,7 -7,7" /><path
       inkscape:connector-curvature="0"
       id="path6300"
       style="fill:#2f3a46;fill-opacity:1;fill-rule:nonzero;stroke:none"
       d="m 58.781374,41.910149 -5.526,0 0,-5.527 -3.626,0 0,-5.525 -14.877,0 0,5.525 -3.629,0 0,5.527 -5.525,0 0,14.632 33.183,0 0,-14.632 z m -36.683,18.132 0,-21.632 5.525,0 0,-5.527 3.629,0 0,-5.525 21.877,0 0,5.525 3.626,0 0,5.527 5.526,0 0,21.632 -40.183,0" /><path
       inkscape:connector-curvature="0"
       id="path6302"
       style="fill:#2f3a46;fill-opacity:1;fill-rule:nonzero;stroke:none"
       d="m 30.298374,44.761149 3.5,0 0,9.17188 -3.5,0 0,-9.17188 z" /><path
       inkscape:connector-curvature="0"
       id="path6304"
       style="fill:#2f3a46;fill-opacity:1;fill-rule:nonzero;stroke:none"
       d="m 37.058374,44.761149 3.5,0 0,9.17188 -3.5,0 0,-9.17188 z" /><path
       inkscape:connector-curvature="0"
       id="path6306"
       style="fill:#2f3a46;fill-opacity:1;fill-rule:nonzero;stroke:none"
       d="m 43.820374,44.761149 3.5,0 0,9.17188 -3.5,0 0,-9.17188 z" /><path
       inkscape:connector-curvature="0"
       id="path6308"
       style="fill:#2f3a46;fill-opacity:1;fill-rule:nonzero;stroke:none"
       d="m 50.581374,44.761149 3.5,0 0,9.17188 -3.5,0 0,-9.17188 z" /></g></svg>