<svg width="128" height="24" viewBox="0 0 128 24" xmlns="http://www.w3.org/2000/svg">
    <g fill="#555657" fill-rule="nonzero">
        <path d="M.291 23.515h7.333V7.03h7.091v16.485h7.334V.582H.29zM38.172 24c7.14 0 12.093-5.042 12.093-12.024C50.265 4.994 45.312 0 38.172 0 31.033 0 26.08 4.994 26.08 11.976 26.08 18.958 31.033 24 38.172 24zm0-5.77c-3.254 0-4.613-2.715-4.613-6.254 0-3.54 1.36-6.206 4.613-6.206 3.254 0 4.614 2.666 4.614 6.206 0 3.54-1.36 6.254-4.614 6.254zM54.296 23.515h7.188l5.925-8.582c1.263-1.842 2.477-3.927 2.914-4.751h.146c-.146 1.26-.243 3.248-.243 5.14v8.193h7.14V.582h-7.189l-5.925 8.582c-1.262 1.842-2.477 3.927-2.914 4.751h-.145c.145-1.26.243-3.248.243-5.14V.583h-7.14v22.933zM93.538 24c3.35 0 6.41-.97 8.353-2.376l-2.04-4.945c-1.748.97-3.302 1.551-5.245 1.551-3.448 0-5.73-2.133-5.73-6.109 0-3.54 2.185-6.351 6.021-6.351 2.234 0 3.983.678 5.683 1.988V1.697C99.414.921 97.326 0 94.023 0 87.37 0 81.396 4.752 81.396 12.17c0 6.788 4.371 11.83 12.142 11.83zM104.902 23.515h7.334v-8.97h2.962c.631 0 1.166.63 1.651 1.94l2.477 7.03h7.965l-4.128-8.921c-.632-1.358-1.506-2.133-2.574-2.57v-.097c1.505-1.018 1.748-3.588 2.865-4.945.389-.437.874-.679 1.554-.679a4.36 4.36 0 0 1 1.457.242V.388C125.688.097 124.328 0 123.6 0c-2.186 0-3.545.776-4.468 1.94-2.088 2.666-1.991 7.127-4.614 7.127h-2.282V.582h-7.334v22.933z"/>
    </g>
</svg>
